<svg id="Layer_1" data-name="Layer 1" xmlns="http://www.w3.org/2000/svg" xmlns:xlink="http://www.w3.org/1999/xlink" viewBox="0 0 16 16"><defs><style>.cls-1{fill:url(#radial-gradient);}.cls-2{fill:url(#linear-gradient);}</style><radialGradient id="radial-gradient" cx="8" cy="8" r="8" gradientUnits="userSpaceOnUse"><stop offset="0" stop-color="#008cc7"/><stop offset="0.06" stop-color="#0083c3"/><stop offset="0.51" stop-color="#0046ab"/><stop offset="0.83" stop-color="#001f9c"/><stop offset="1" stop-color="#001196"/></radialGradient><linearGradient id="linear-gradient" x1="7.62" y1="2.97" x2="7.87" y2="14.92" gradientUnits="userSpaceOnUse"><stop offset="0" stop-color="#f26922"/><stop offset="0.28" stop-color="#f37024"/><stop offset="0.35" stop-color="#f48028"/><stop offset="0.7" stop-color="#fad03e"/><stop offset="0.86" stop-color="#fcef46"/></linearGradient></defs><title>favicon</title><rect class="cls-1" width="16" height="16"/><g id="feuding"><path class="cls-2" d="M2.46,13.88V12.65h1a.77.77,0,0,0,.85-.84V4.67c0-.4-.28-.62-.78-.62H2.46V2.82H13V7.37H11.76c-.33-2.73-.93-3.32-3.2-3.32H6.69V7.52h.78c1.07,0,1.39-.78,1.39-1.63V5.45h1.23V11H8.86v-.64c0-1.18-.45-1.63-1.49-1.63H6.69v3c0,.63.28.87,1,.87h.83v1.23Z"/></g></svg>