<svg id="logo" xmlns="http://www.w3.org/2000/svg" xmlns:xlink="http://www.w3.org/1999/xlink" viewBox="0 0 255 132"><defs><style>.cls-1{fill:url(#linear-gradient);}.cls-2{fill:#3b4a83;}.cls-3{fill:#a5c9e6;}.cls-4{fill:#719fd4;}.cls-5{fill:#9fc1e4;}.cls-6{fill:#97b8db;}.cls-7{fill:#86afd7;}.cls-8{fill:#7f9ec9;}.cls-9{fill:#708ab9;}.cls-10{fill:#5e75a7;}.cls-11,.cls-13,.cls-15,.cls-17,.cls-19{fill:none;stroke-miterlimit:10;}.cls-11{stroke:#cd4e27;stroke-width:10px;}.cls-12{fill:url(#linear-gradient-2);}.cls-13{font-size:74.59px;letter-spacing:-0.05em;}.cls-13,.cls-15,.cls-17,.cls-19{stroke:#fcc0c6;font-family:Clarendon-Bold, Clarendon;font-weight:700;}.cls-13,.cls-15,.cls-17{stroke-width:2px;}.cls-14{fill:url(#linear-gradient-3);}.cls-15{font-size:42.71px;}.cls-16{fill:url(#linear-gradient-9);}.cls-17{font-size:63.93px;}.cls-18{fill:url(#linear-gradient-10);}.cls-19{font-size:32.98px;}</style><linearGradient id="linear-gradient" x1="126.25" y1="3.1" x2="129.21" y2="144.05" gradientUnits="userSpaceOnUse"><stop offset="0.06" stop-color="#5475b9"/><stop offset="0.33" stop-color="#4e6eb5"/><stop offset="0.81" stop-color="#1f2f5f"/></linearGradient><linearGradient id="linear-gradient-2" x1="39.36" y1="21.1" x2="40.48" y2="74.51" gradientUnits="userSpaceOnUse"><stop offset="0.06" stop-color="#f26922"/><stop offset="0.33" stop-color="#f37024"/><stop offset="0.81" stop-color="#fcef46"/></linearGradient><linearGradient id="linear-gradient-3" x1="161.39" y1="23.97" x2="162.13" y2="58.84" xlink:href="#linear-gradient-2"/><linearGradient id="linear-gradient-9" x1="72.98" y1="66.35" x2="73.94" y2="112.13" xlink:href="#linear-gradient-2"/><linearGradient id="linear-gradient-10" x1="163.78" y1="83.53" x2="164.35" y2="110.48" xlink:href="#linear-gradient-2"/></defs><title>Artboard 2</title><g id="circles_background" data-name="circles background"><ellipse class="cls-1" cx="127.57" cy="66" rx="127.56" ry="66"/><g id="small_circles" data-name="small circles"><circle class="cls-2" cx="142.63" cy="123.6" r="2.43"/><circle class="cls-2" cx="153.3" cy="123.6" r="2.43"/><circle class="cls-2" cx="163.98" cy="123.6" r="2.43"/><circle class="cls-2" cx="98" cy="123.6" r="2.43"/><circle class="cls-2" cx="108.67" cy="123.6" r="2.43"/><circle class="cls-2" cx="119.34" cy="123.6" r="2.43"/><circle class="cls-2" cx="130.02" cy="123.6" r="2.43"/><circle class="cls-3" cx="135.21" cy="15.51" r="2.83"/><circle class="cls-3" cx="147.68" cy="15.51" r="2.83"/><circle class="cls-3" cx="160.15" cy="15.51" r="2.83"/><circle class="cls-3" cx="172.63" cy="15.51" r="2.83"/><circle class="cls-3" cx="185.1" cy="15.51" r="2.83"/><circle class="cls-4" cx="135.21" cy="27.98" r="2.83"/><circle class="cls-4" cx="147.68" cy="27.98" r="2.83"/><circle class="cls-4" cx="160.15" cy="27.98" r="2.83"/><circle class="cls-4" cx="172.63" cy="27.98" r="2.83"/><circle class="cls-4" cx="185.1" cy="27.98" r="2.83"/><circle class="cls-4" cx="197.57" cy="27.98" r="2.83"/><circle class="cls-4" cx="210.05" cy="27.98" r="2.83"/><circle class="cls-5" cx="135.21" cy="40.46" r="2.83"/><circle class="cls-5" cx="147.68" cy="40.46" r="2.83"/><circle class="cls-5" cx="160.15" cy="40.46" r="2.83"/><circle class="cls-5" cx="172.63" cy="40.46" r="2.83"/><circle class="cls-5" cx="185.1" cy="40.46" r="2.83"/><circle class="cls-5" cx="197.57" cy="40.46" r="2.83"/><circle class="cls-5" cx="210.05" cy="40.46" r="2.83"/><circle class="cls-6" cx="135.21" cy="52.93" r="2.83"/><circle class="cls-6" cx="147.68" cy="52.93" r="2.83"/><circle class="cls-6" cx="160.15" cy="52.93" r="2.83"/><circle class="cls-6" cx="172.63" cy="52.93" r="2.83"/><circle class="cls-6" cx="185.1" cy="52.93" r="2.83"/><circle class="cls-6" cx="197.57" cy="52.93" r="2.83"/><circle class="cls-6" cx="210.05" cy="52.93" r="2.83"/><circle class="cls-7" cx="135.21" cy="65.41" r="2.83"/><circle class="cls-7" cx="147.68" cy="65.41" r="2.83"/><circle class="cls-7" cx="160.15" cy="65.41" r="2.83"/><circle class="cls-7" cx="172.63" cy="65.41" r="2.83"/><circle class="cls-7" cx="185.1" cy="65.41" r="2.83"/><circle class="cls-7" cx="197.57" cy="65.41" r="2.83"/><circle class="cls-7" cx="210.05" cy="65.41" r="2.83"/><circle class="cls-7" cx="135.21" cy="77.88" r="2.83"/><circle class="cls-7" cx="147.68" cy="77.88" r="2.83"/><circle class="cls-7" cx="160.15" cy="77.88" r="2.83"/><circle class="cls-7" cx="172.63" cy="77.88" r="2.83"/><circle class="cls-7" cx="185.1" cy="77.88" r="2.83"/><circle class="cls-7" cx="197.57" cy="77.88" r="2.83"/><circle class="cls-7" cx="210.05" cy="77.88" r="2.83"/><circle class="cls-8" cx="135.21" cy="90.35" r="2.83"/><circle class="cls-8" cx="147.68" cy="90.35" r="2.83"/><circle class="cls-8" cx="160.15" cy="90.35" r="2.83"/><circle class="cls-8" cx="172.63" cy="90.35" r="2.83"/><circle class="cls-8" cx="185.1" cy="90.35" r="2.83"/><circle class="cls-8" cx="197.57" cy="90.35" r="2.83"/><circle class="cls-8" cx="210.05" cy="90.35" r="2.83"/><circle class="cls-5" cx="221.39" cy="40.46" r="2.83"/><circle class="cls-6" cx="221.39" cy="52.93" r="2.83"/><circle class="cls-6" cx="233.86" cy="52.93" r="2.83"/><circle class="cls-7" cx="221.39" cy="65.41" r="2.83"/><circle class="cls-7" cx="233.86" cy="65.41" r="2.83"/><circle class="cls-7" cx="221.39" cy="77.88" r="2.83"/><circle class="cls-7" cx="233.86" cy="77.88" r="2.83"/><circle class="cls-8" cx="221.39" cy="90.35" r="2.83"/><circle class="cls-8" cx="233.86" cy="90.35" r="2.83"/><circle class="cls-5" cx="21.81" cy="40.46" r="2.83"/><circle class="cls-5" cx="34.29" cy="40.46" r="2.83"/><circle class="cls-6" cx="21.81" cy="52.93" r="2.83"/><circle class="cls-6" cx="34.29" cy="52.93" r="2.83"/><circle class="cls-7" cx="9.34" cy="65.41" r="2.83"/><circle class="cls-7" cx="21.81" cy="65.41" r="2.83"/><circle class="cls-7" cx="34.29" cy="65.41" r="2.83"/><circle class="cls-7" cx="21.81" cy="77.88" r="2.83"/><circle class="cls-7" cx="34.29" cy="77.88" r="2.83"/><circle class="cls-8" cx="21.81" cy="90.35" r="2.83"/><circle class="cls-8" cx="34.29" cy="90.35" r="2.83"/><circle class="cls-3" cx="70.57" cy="15.51" r="2.83"/><circle class="cls-3" cx="83.05" cy="15.51" r="2.83"/><circle class="cls-3" cx="95.52" cy="15.51" r="2.83"/><circle class="cls-3" cx="107.99" cy="15.51" r="2.83"/><circle class="cls-3" cx="120.47" cy="15.51" r="2.83"/><circle class="cls-4" cx="45.63" cy="27.98" r="2.83"/><circle class="cls-4" cx="58.1" cy="27.98" r="2.83"/><circle class="cls-4" cx="70.57" cy="27.98" r="2.83"/><circle class="cls-4" cx="83.05" cy="27.98" r="2.83"/><circle class="cls-4" cx="95.52" cy="27.98" r="2.83"/><circle class="cls-4" cx="107.99" cy="27.98" r="2.83"/><circle class="cls-4" cx="120.47" cy="27.98" r="2.83"/><circle class="cls-5" cx="45.63" cy="40.46" r="2.83"/><circle class="cls-5" cx="58.1" cy="40.46" r="2.83"/><circle class="cls-5" cx="70.57" cy="40.46" r="2.83"/><circle class="cls-5" cx="83.05" cy="40.46" r="2.83"/><circle class="cls-5" cx="95.52" cy="40.46" r="2.83"/><circle class="cls-5" cx="107.99" cy="40.46" r="2.83"/><circle class="cls-5" cx="120.47" cy="40.46" r="2.83"/><circle class="cls-6" cx="45.63" cy="52.93" r="2.83"/><circle class="cls-6" cx="58.1" cy="52.93" r="2.83"/><circle class="cls-6" cx="70.57" cy="52.93" r="2.83"/><circle class="cls-6" cx="83.05" cy="52.93" r="2.83"/><circle class="cls-6" cx="95.52" cy="52.93" r="2.83"/><circle class="cls-6" cx="107.99" cy="52.93" r="2.83"/><circle class="cls-6" cx="120.47" cy="52.93" r="2.83"/><circle class="cls-7" cx="45.63" cy="65.41" r="2.83"/><circle class="cls-7" cx="58.1" cy="65.41" r="2.83"/><circle class="cls-7" cx="70.57" cy="65.41" r="2.83"/><circle class="cls-7" cx="83.05" cy="65.41" r="2.83"/><circle class="cls-7" cx="95.52" cy="65.41" r="2.83"/><circle class="cls-7" cx="107.99" cy="65.41" r="2.83"/><circle class="cls-7" cx="120.47" cy="65.41" r="2.83"/><circle class="cls-7" cx="45.63" cy="77.88" r="2.83"/><circle class="cls-7" cx="58.1" cy="77.88" r="2.83"/><circle class="cls-7" cx="70.57" cy="77.88" r="2.83"/><circle class="cls-7" cx="83.05" cy="77.88" r="2.83"/><circle class="cls-7" cx="95.52" cy="77.88" r="2.83"/><circle class="cls-7" cx="107.99" cy="77.88" r="2.83"/><circle class="cls-7" cx="120.47" cy="77.88" r="2.83"/><circle class="cls-8" cx="45.63" cy="90.35" r="2.83"/><circle class="cls-8" cx="58.1" cy="90.35" r="2.83"/><circle class="cls-8" cx="70.57" cy="90.35" r="2.83"/><circle class="cls-8" cx="83.05" cy="90.35" r="2.83"/><circle class="cls-8" cx="95.52" cy="90.35" r="2.83"/><circle class="cls-8" cx="107.99" cy="90.35" r="2.83"/><circle class="cls-8" cx="120.47" cy="90.35" r="2.83"/><circle class="cls-9" cx="135.21" cy="103.39" r="2.83"/><circle class="cls-9" cx="147.68" cy="103.39" r="2.83"/><circle class="cls-9" cx="160.15" cy="103.39" r="2.83"/><circle class="cls-9" cx="172.63" cy="103.39" r="2.83"/><circle class="cls-9" cx="185.1" cy="103.39" r="2.83"/><circle class="cls-9" cx="197.57" cy="103.39" r="2.83"/><circle class="cls-9" cx="210.05" cy="103.39" r="2.83"/><circle class="cls-10" cx="135.21" cy="115.87" r="2.83"/><circle class="cls-10" cx="147.68" cy="115.87" r="2.83"/><circle class="cls-10" cx="160.15" cy="115.87" r="2.83"/><circle class="cls-10" cx="172.63" cy="115.87" r="2.83"/><circle class="cls-10" cx="185.1" cy="115.87" r="2.83"/><circle class="cls-9" cx="34.29" cy="103.39" r="2.83"/><circle class="cls-9" cx="45.63" cy="103.39" r="2.83"/><circle class="cls-9" cx="58.1" cy="103.39" r="2.83"/><circle class="cls-9" cx="70.57" cy="103.39" r="2.83"/><circle class="cls-9" cx="83.05" cy="103.39" r="2.83"/><circle class="cls-9" cx="95.52" cy="103.39" r="2.83"/><circle class="cls-9" cx="107.99" cy="103.39" r="2.83"/><circle class="cls-9" cx="120.47" cy="103.39" r="2.83"/><circle class="cls-10" cx="70.57" cy="115.87" r="2.83"/><circle class="cls-10" cx="83.05" cy="115.87" r="2.83"/><circle class="cls-10" cx="95.52" cy="115.87" r="2.83"/><circle class="cls-10" cx="107.99" cy="115.87" r="2.83"/><circle class="cls-10" cx="120.47" cy="115.87" r="2.83"/></g><ellipse class="cls-11" cx="126.7" cy="66" rx="117.94" ry="59.77"/></g><g id="feuding"><path class="cls-12" d="M15.1,69.88V63.31h4.55a2.69,2.69,0,0,0,2.91-3V30a2.69,2.69,0,0,0-2.91-3H15V20.42h49.6V39.37H57.69C57.69,28.63,53.51,27,44,27H36.58V41.23H38.9c4.25,0,5.89-1.94,5.89-5.07V33.25H51V55.78H44.79V52.87c0-3.13-1.64-5.07-5.89-5.07H36.58V60.33a2.69,2.69,0,0,0,2.91,3h4.63v6.57Z"/><text class="cls-13" transform="translate(13.54 69.88)">F</text><path class="cls-14" d="M74.13,30.58a1.54,1.54,0,0,0-1.67-1.7H69.81V25.12H98.22V36h-4c0-6.15-2.4-7.09-7.86-7.09H82.16V37h1.32c2.48,0,3.38-1,3.38-3.63v-.94H90.4v12.9H86.86v-1c0-1.58-.6-3.55-2.14-3.55H82.16v8.88h5.21c4.48,0,6.88-.93,6.88-7.81h4V53.43H69.86V49.67h2.6A1.54,1.54,0,0,0,74.13,48Z"/><path class="cls-14" d="M100.57,25.12h16.65v3.76h-2.64a1.54,1.54,0,0,0-1.67,1.7V45.66c0,2.73,1.49,4.66,5,4.66,5,0,5.81-2.18,5.81-7.48V30.58a1.54,1.54,0,0,0-1.66-1.7h-2.52V25.12h13v3.76H130a1.54,1.54,0,0,0-1.66,1.7V44.29c0,6.33-3.38,10-11.32,10-7.52,0-12.13-2.39-12.13-9.57V30.58a1.54,1.54,0,0,0-1.67-1.7h-2.64Z"/><path class="cls-14" d="M137.85,30.58a1.53,1.53,0,0,0-1.66-1.7h-2.57V25.12h15.51c9.69,0,16,4.23,16,14.39,0,9.74-6.15,13.92-16.23,13.92h-15.2V49.67h2.52a1.53,1.53,0,0,0,1.66-1.7Zm8,19.09h2c5.64,0,8.2-2,8.2-10.42s-2.56-10.37-8.2-10.37h-2Z"/><path class="cls-14" d="M184.19,28.88h-2.64c-1.07,0-1.67.17-1.67,1.7V48a1.54,1.54,0,0,0,1.67,1.7h2.6v3.76H167.58V49.67h2.61a1.54,1.54,0,0,0,1.66-1.7V30c0-.73-.6-1.11-1.66-1.11h-2.65V25.12h16.65Z"/><path class="cls-14" d="M211.06,44.64h.09V30.58a1.54,1.54,0,0,0-1.67-1.7h-2.61V25.12H220v3.76h-2.56a1.54,1.54,0,0,0-1.67,1.7V53.43h-8.63l-11.87-21h-.09V48a1.54,1.54,0,0,0,1.67,1.7h2.61v3.76h-13.2V49.67h2.6a1.54,1.54,0,0,0,1.67-1.7V30.58a1.54,1.54,0,0,0-1.67-1.7h-2.64V25.12H200Z"/><path class="cls-14" d="M253.86,42.24h-2A1.53,1.53,0,0,0,250.23,44v9.83h-3.72l-.94-2.1a13.82,13.82,0,0,1-8.41,2.61c-8.89,0-15.12-5-15.12-14.61s6-15.42,15.12-15.42a11.34,11.34,0,0,1,7.68,2.86l.86-2.39h3.84V36.35h-4c-.13-4.23-2.65-8.11-7-8.11-5,0-7.31,3.67-7.31,11.06s2.35,10.93,7.31,10.93c1.62,0,3.59-.64,3.59-2.65V44a1.54,1.54,0,0,0-1.67-1.71h-2.22V38.49h15.55Z"/><text class="cls-15" transform="translate(69.09 53.43)">EUDING</text></g><g id="friends"><path class="cls-16" d="M52.19,108.16v-5.63h3.9A2.31,2.31,0,0,0,58.58,100V74a2.31,2.31,0,0,0-2.49-2.56h-4V65.77H94.64V82h-6c0-9.21-3.58-10.62-11.76-10.62H70.6V83.61h2c3.65,0,5-1.67,5-4.35v-2.5h5.31V96.07H77.63V93.58c0-2.69-1.4-4.35-5-4.35h-2V100a2.3,2.3,0,0,0,2.49,2.56h4v5.63Z"/><text class="cls-17" transform="translate(50.84 108.16)">F</text><path class="cls-18" d="M97.72,88.61a1.19,1.19,0,0,0-1.29-1.32h-2v-2.9h15.2c4.62,0,7.35,1.81,7.35,5.34,0,3.13-2.11,4.55-5,4.94v.07c2.48.69,3.86,1.48,3.86,4.19v3.46c0,.63.23,1.12,1.12,1.12s1.09-1,1.09-2v-1.32h2.21v1.12c0,3.2-1.12,5.64-5.37,5.64-3.14,0-5.25-1.55-5.25-5.41V98.8c0-2-.33-2.44-3-2.44h-2.7V102a1.19,1.19,0,0,0,1.28,1.32h2v2.9H94.42v-2.9h2A1.19,1.19,0,0,0,97.72,102Zm6.2,4.85h3.16c2.44,0,3.66-.53,3.66-3.17,0-2.44-1.41-3-4.45-3h-2.37Z"/><path class="cls-18" d="M135.05,87.29h-2c-.83,0-1.29.13-1.29,1.32V102a1.19,1.19,0,0,0,1.29,1.32h2v2.9h-12.8v-2.9h2a1.19,1.19,0,0,0,1.28-1.32V88.15c0-.56-.46-.86-1.28-.86h-2v-2.9h12.86Z"/><path class="cls-18" d="M139.83,88.61a1.18,1.18,0,0,0-1.28-1.32H136.5v-2.9h21.93v8.37h-3.06c0-4.75-1.85-5.47-6.07-5.47H146v6.3h1c1.91,0,2.6-.76,2.6-2.81v-.72h2.74v10h-2.74v-.79c0-1.22-.46-2.74-1.65-2.74h-2v6.86h4c3.46,0,5.31-.73,5.31-6h3.06v8.94H136.54v-2.9h2a1.19,1.19,0,0,0,1.28-1.32Z"/><path class="cls-18" d="M179.61,99.46h.06V88.61a1.18,1.18,0,0,0-1.28-1.32h-2v-2.9h10.16v2.9h-2a1.18,1.18,0,0,0-1.28,1.32v17.64H176.6L167.44,90h-.07v12a1.19,1.19,0,0,0,1.29,1.32h2v2.9H160.48v-2.9h2a1.19,1.19,0,0,0,1.29-1.32V88.61a1.19,1.19,0,0,0-1.29-1.32h-2v-2.9h10.62Z"/><path class="cls-18" d="M190.85,88.61a1.18,1.18,0,0,0-1.28-1.32h-2v-2.9h12c7.48,0,12.33,3.26,12.33,11.11,0,7.52-4.75,10.75-12.53,10.75H187.62v-2.9h1.95a1.19,1.19,0,0,0,1.28-1.32Zm6.2,14.74h1.52c4.35,0,6.33-1.52,6.33-8s-2-8-6.33-8h-1.52Z"/><path class="cls-18" d="M232.87,92.2h-3a6.43,6.43,0,0,0-6.47-5.41c-1.91,0-3.69.63-3.69,2.84,0,4.16,14.28.82,14.28,10.22,0,5.28-4.55,7.06-9.1,7.06a12,12,0,0,1-7.19-2l-.86,1.75H214V98h3.07c.43,3.46,3.3,5.87,7.19,5.87,1.71,0,3.79-1,3.79-2.83,0-4.72-14.28-.89-14.28-10.36,0-5.44,4.91-6.92,9.46-6.92a11.73,11.73,0,0,1,6.27,1.91l.59-1.55h2.74Z"/><text class="cls-19" transform="translate(93.83 106.25)">RIENDS</text></g></svg>