<svg id="logo" xmlns="http://www.w3.org/2000/svg" xmlns:xlink="http://www.w3.org/1999/xlink" viewBox="0 0 479.47 247.76"><defs><style>.cls-1{fill:url(#linear-gradient);}.cls-2{fill:#3b4a83;}.cls-3{fill:#a5c9e6;}.cls-4{fill:#719fd4;}.cls-5{fill:#9fc1e4;}.cls-6{fill:#97b8db;}.cls-7{fill:#86afd7;}.cls-8{fill:#7f9ec9;}.cls-9{fill:#708ab9;}.cls-10{fill:#5e75a7;}.cls-11,.cls-13,.cls-15,.cls-17,.cls-19{fill:none;stroke-miterlimit:10;}.cls-11{stroke:#cd4e27;stroke-width:10px;}.cls-12{fill:url(#linear-gradient-2);}.cls-13{font-size:140px;letter-spacing:-0.05em;}.cls-13,.cls-15,.cls-17,.cls-19{stroke:#fcc0c6;stroke-width:3px;font-family:Clarendon-Bold, Clarendon;font-weight:700;}.cls-14{fill:url(#linear-gradient-3);}.cls-15{font-size:80.17px;}.cls-16{fill:url(#linear-gradient-9);}.cls-17{font-size:120px;}.cls-18{fill:url(#linear-gradient-10);}.cls-19{font-size:61.9px;}</style><linearGradient id="linear-gradient" x1="236.95" y1="5.82" x2="242.51" y2="270.38" gradientUnits="userSpaceOnUse"><stop offset="0.06" stop-color="#5475b9"/><stop offset="0.33" stop-color="#4e6eb5"/><stop offset="0.81" stop-color="#1f2f5f"/></linearGradient><linearGradient id="linear-gradient-2" x1="74.01" y1="39.72" x2="76.11" y2="139.97" gradientUnits="userSpaceOnUse"><stop offset="0.06" stop-color="#f26922"/><stop offset="0.33" stop-color="#f37024"/><stop offset="0.81" stop-color="#fcef46"/></linearGradient><linearGradient id="linear-gradient-3" x1="303.06" y1="45.1" x2="304.44" y2="110.57" xlink:href="#linear-gradient-2"/><linearGradient id="linear-gradient-9" x1="137.1" y1="124.65" x2="138.91" y2="210.58" xlink:href="#linear-gradient-2"/><linearGradient id="linear-gradient-10" x1="307.54" y1="156.89" x2="308.61" y2="207.5" xlink:href="#linear-gradient-2"/></defs><title>logo</title><g id="circles_background" data-name="circles background"><ellipse class="cls-1" cx="239.43" cy="123.88" rx="239.43" ry="123.88"/><g id="small_circles" data-name="small circles"><circle class="cls-2" cx="267.7" cy="232" r="4.55"/><circle class="cls-2" cx="287.73" cy="232" r="4.55"/><circle class="cls-2" cx="307.77" cy="232" r="4.55"/><circle class="cls-2" cx="183.93" cy="232" r="4.55"/><circle class="cls-2" cx="203.96" cy="232" r="4.55"/><circle class="cls-2" cx="223.99" cy="232" r="4.55"/><circle class="cls-2" cx="244.03" cy="232" r="4.55"/><circle class="cls-3" cx="253.77" cy="29.11" r="5.32"/><circle class="cls-3" cx="277.18" cy="29.11" r="5.32"/><circle class="cls-3" cx="300.6" cy="29.11" r="5.32"/><circle class="cls-3" cx="324.01" cy="29.11" r="5.32"/><circle class="cls-3" cx="347.42" cy="29.11" r="5.32"/><circle class="cls-4" cx="253.77" cy="52.53" r="5.32"/><circle class="cls-4" cx="277.18" cy="52.53" r="5.32"/><circle class="cls-4" cx="300.6" cy="52.53" r="5.32"/><circle class="cls-4" cx="324.01" cy="52.53" r="5.32"/><circle class="cls-4" cx="347.42" cy="52.53" r="5.32"/><circle class="cls-4" cx="370.83" cy="52.53" r="5.32"/><circle class="cls-4" cx="394.24" cy="52.53" r="5.32"/><circle class="cls-5" cx="253.77" cy="75.94" r="5.32"/><circle class="cls-5" cx="277.18" cy="75.94" r="5.32"/><circle class="cls-5" cx="300.6" cy="75.94" r="5.32"/><circle class="cls-5" cx="324.01" cy="75.94" r="5.32"/><circle class="cls-5" cx="347.42" cy="75.94" r="5.32"/><circle class="cls-5" cx="370.83" cy="75.94" r="5.32"/><circle class="cls-5" cx="394.24" cy="75.94" r="5.32"/><circle class="cls-6" cx="253.77" cy="99.35" r="5.32"/><circle class="cls-6" cx="277.18" cy="99.35" r="5.32"/><circle class="cls-6" cx="300.6" cy="99.35" r="5.32"/><circle class="cls-6" cx="324.01" cy="99.35" r="5.32"/><circle class="cls-6" cx="347.42" cy="99.35" r="5.32"/><circle class="cls-6" cx="370.83" cy="99.35" r="5.32"/><circle class="cls-6" cx="394.24" cy="99.35" r="5.32"/><circle class="cls-7" cx="253.77" cy="122.76" r="5.32"/><circle class="cls-7" cx="277.18" cy="122.76" r="5.32"/><circle class="cls-7" cx="300.6" cy="122.76" r="5.32"/><circle class="cls-7" cx="324.01" cy="122.76" r="5.32"/><circle class="cls-7" cx="347.42" cy="122.76" r="5.32"/><circle class="cls-7" cx="370.83" cy="122.76" r="5.32"/><circle class="cls-7" cx="394.24" cy="122.76" r="5.32"/><circle class="cls-7" cx="253.77" cy="146.18" r="5.32"/><circle class="cls-7" cx="277.18" cy="146.18" r="5.32"/><circle class="cls-7" cx="300.6" cy="146.18" r="5.32"/><circle class="cls-7" cx="324.01" cy="146.18" r="5.32"/><circle class="cls-7" cx="347.42" cy="146.18" r="5.32"/><circle class="cls-7" cx="370.83" cy="146.18" r="5.32"/><circle class="cls-7" cx="394.24" cy="146.18" r="5.32"/><circle class="cls-8" cx="253.77" cy="169.59" r="5.32"/><circle class="cls-8" cx="277.18" cy="169.59" r="5.32"/><circle class="cls-8" cx="300.6" cy="169.59" r="5.32"/><circle class="cls-8" cx="324.01" cy="169.59" r="5.32"/><circle class="cls-8" cx="347.42" cy="169.59" r="5.32"/><circle class="cls-8" cx="370.83" cy="169.59" r="5.32"/><circle class="cls-8" cx="394.24" cy="169.59" r="5.32"/><circle class="cls-5" cx="415.53" cy="75.94" r="5.32"/><circle class="cls-6" cx="415.53" cy="99.35" r="5.32"/><circle class="cls-6" cx="438.94" cy="99.35" r="5.32"/><circle class="cls-7" cx="415.53" cy="122.76" r="5.32"/><circle class="cls-7" cx="438.94" cy="122.76" r="5.32"/><circle class="cls-7" cx="415.53" cy="146.18" r="5.32"/><circle class="cls-7" cx="438.94" cy="146.18" r="5.32"/><circle class="cls-8" cx="415.53" cy="169.59" r="5.32"/><circle class="cls-8" cx="438.94" cy="169.59" r="5.32"/><circle class="cls-5" cx="40.93" cy="75.94" r="5.32"/><circle class="cls-5" cx="64.34" cy="75.94" r="5.32"/><circle class="cls-6" cx="40.93" cy="99.35" r="5.32"/><circle class="cls-6" cx="64.34" cy="99.35" r="5.32"/><circle class="cls-7" cx="17.52" cy="122.76" r="5.32"/><circle class="cls-7" cx="40.93" cy="122.76" r="5.32"/><circle class="cls-7" cx="64.34" cy="122.76" r="5.32"/><circle class="cls-7" cx="40.93" cy="146.18" r="5.32"/><circle class="cls-7" cx="64.34" cy="146.18" r="5.32"/><circle class="cls-8" cx="40.93" cy="169.59" r="5.32"/><circle class="cls-8" cx="64.34" cy="169.59" r="5.32"/><circle class="cls-3" cx="132.45" cy="29.11" r="5.32"/><circle class="cls-3" cx="155.87" cy="29.11" r="5.32"/><circle class="cls-3" cx="179.28" cy="29.11" r="5.32"/><circle class="cls-3" cx="202.69" cy="29.11" r="5.32"/><circle class="cls-3" cx="226.1" cy="29.11" r="5.32"/><circle class="cls-4" cx="85.63" cy="52.53" r="5.32"/><circle class="cls-4" cx="109.04" cy="52.53" r="5.32"/><circle class="cls-4" cx="132.45" cy="52.53" r="5.32"/><circle class="cls-4" cx="155.87" cy="52.53" r="5.32"/><circle class="cls-4" cx="179.28" cy="52.53" r="5.32"/><circle class="cls-4" cx="202.69" cy="52.53" r="5.32"/><circle class="cls-4" cx="226.1" cy="52.53" r="5.32"/><circle class="cls-5" cx="85.63" cy="75.94" r="5.32"/><circle class="cls-5" cx="109.04" cy="75.94" r="5.32"/><circle class="cls-5" cx="132.45" cy="75.94" r="5.32"/><circle class="cls-5" cx="155.87" cy="75.94" r="5.32"/><circle class="cls-5" cx="179.28" cy="75.94" r="5.32"/><circle class="cls-5" cx="202.69" cy="75.94" r="5.32"/><circle class="cls-5" cx="226.1" cy="75.94" r="5.32"/><circle class="cls-6" cx="85.63" cy="99.35" r="5.32"/><circle class="cls-6" cx="109.04" cy="99.35" r="5.32"/><circle class="cls-6" cx="132.45" cy="99.35" r="5.32"/><circle class="cls-6" cx="155.87" cy="99.35" r="5.32"/><circle class="cls-6" cx="179.28" cy="99.35" r="5.32"/><circle class="cls-6" cx="202.69" cy="99.35" r="5.32"/><circle class="cls-6" cx="226.1" cy="99.35" r="5.32"/><circle class="cls-7" cx="85.63" cy="122.76" r="5.32"/><circle class="cls-7" cx="109.04" cy="122.76" r="5.32"/><circle class="cls-7" cx="132.45" cy="122.76" r="5.32"/><circle class="cls-7" cx="155.87" cy="122.76" r="5.32"/><circle class="cls-7" cx="179.28" cy="122.76" r="5.32"/><circle class="cls-7" cx="202.69" cy="122.76" r="5.32"/><circle class="cls-7" cx="226.1" cy="122.76" r="5.32"/><circle class="cls-7" cx="85.63" cy="146.18" r="5.32"/><circle class="cls-7" cx="109.04" cy="146.18" r="5.32"/><circle class="cls-7" cx="132.45" cy="146.18" r="5.32"/><circle class="cls-7" cx="155.87" cy="146.18" r="5.32"/><circle class="cls-7" cx="179.28" cy="146.18" r="5.32"/><circle class="cls-7" cx="202.69" cy="146.18" r="5.32"/><circle class="cls-7" cx="226.1" cy="146.18" r="5.32"/><circle class="cls-8" cx="85.63" cy="169.59" r="5.32"/><circle class="cls-8" cx="109.04" cy="169.59" r="5.32"/><circle class="cls-8" cx="132.45" cy="169.59" r="5.32"/><circle class="cls-8" cx="155.87" cy="169.59" r="5.32"/><circle class="cls-8" cx="179.28" cy="169.59" r="5.32"/><circle class="cls-8" cx="202.69" cy="169.59" r="5.32"/><circle class="cls-8" cx="226.1" cy="169.59" r="5.32"/><circle class="cls-9" cx="253.77" cy="194.06" r="5.32"/><circle class="cls-9" cx="277.18" cy="194.06" r="5.32"/><circle class="cls-9" cx="300.6" cy="194.06" r="5.32"/><circle class="cls-9" cx="324.01" cy="194.06" r="5.32"/><circle class="cls-9" cx="347.42" cy="194.06" r="5.32"/><circle class="cls-9" cx="370.83" cy="194.06" r="5.32"/><circle class="cls-9" cx="394.24" cy="194.06" r="5.32"/><circle class="cls-10" cx="253.77" cy="217.48" r="5.32"/><circle class="cls-10" cx="277.18" cy="217.48" r="5.32"/><circle class="cls-10" cx="300.6" cy="217.48" r="5.32"/><circle class="cls-10" cx="324.01" cy="217.48" r="5.32"/><circle class="cls-10" cx="347.42" cy="217.48" r="5.32"/><circle class="cls-9" cx="64.34" cy="194.06" r="5.32"/><circle class="cls-9" cx="85.63" cy="194.06" r="5.32"/><circle class="cls-9" cx="109.04" cy="194.06" r="5.32"/><circle class="cls-9" cx="132.45" cy="194.06" r="5.32"/><circle class="cls-9" cx="155.87" cy="194.06" r="5.32"/><circle class="cls-9" cx="179.28" cy="194.06" r="5.32"/><circle class="cls-9" cx="202.69" cy="194.06" r="5.32"/><circle class="cls-9" cx="226.1" cy="194.06" r="5.32"/><circle class="cls-10" cx="132.45" cy="217.48" r="5.32"/><circle class="cls-10" cx="155.87" cy="217.48" r="5.32"/><circle class="cls-10" cx="179.28" cy="217.48" r="5.32"/><circle class="cls-10" cx="202.69" cy="217.48" r="5.32"/><circle class="cls-10" cx="226.1" cy="217.48" r="5.32"/></g><ellipse class="cls-11" cx="237.8" cy="123.88" rx="221.36" ry="112.19"/></g><g id="feuding"><path class="cls-12" d="M28.47,131.27V119H37c3.5,0,5.46-2.1,5.46-5.6v-57c0-3.49-2-5.6-5.46-5.6H28.33V38.45h93.1V74h-13c0-20.16-7.84-23.24-25.76-23.24H68.79V77.51h4.34c8,0,11.06-3.64,11.06-9.52V62.53H95.81v42.28H84.19V99.35c0-5.88-3.08-9.52-11.06-9.52H68.79v23.52c0,3.5,2,5.6,5.46,5.6h8.68v12.32Z" transform="translate(-0.14 -0.12)"/><text class="cls-13" transform="translate(25.4 131.15)">F</text><path class="cls-14" d="M139.27,57.52a2.89,2.89,0,0,0-3.13-3.2h-5V47.26h53.31V67.62H177c0-11.54-4.48-13.3-14.75-13.3h-7.93V69.63h2.48c4.65,0,6.34-1.85,6.34-6.82V61.05h6.65V85.26h-6.65V83.34c0-3-1.13-6.66-4-6.66h-4.81V93.36h9.78c8.42,0,12.9-1.77,12.9-14.67h7.46v21.72H131.25v-7h4.89a2.89,2.89,0,0,0,3.13-3.21Z" transform="translate(-0.14 -0.12)"/><path class="cls-14" d="M188.89,47.26h31.26v7.06h-5a2.88,2.88,0,0,0-3.12,3.2v28.3c0,5.13,2.8,8.74,9.3,8.74,9.3,0,10.9-4.09,10.9-14v-23a2.89,2.89,0,0,0-3.13-3.2H224.4V47.26h24.46v7.06h-4.74a2.88,2.88,0,0,0-3.12,3.2V83.26c0,11.86-6.33,18.76-21.25,18.76-14.11,0-22.76-4.49-22.76-18V57.52a2.89,2.89,0,0,0-3.13-3.2h-5Z" transform="translate(-0.14 -0.12)"/><path class="cls-14" d="M258.88,57.52a2.89,2.89,0,0,0-3.13-3.2h-4.81V47.26H280c18.2,0,30,7.94,30,27,0,18.28-11.54,26.13-30.46,26.13H251v-7h4.73a2.89,2.89,0,0,0,3.13-3.21ZM274,93.36h3.68c10.59,0,15.4-3.69,15.4-19.56s-4.81-19.48-15.4-19.48H274Z" transform="translate(-0.14 -0.12)"/><path class="cls-14" d="M345.86,54.32h-5c-2,0-3.13.32-3.13,3.2V90.15a2.89,2.89,0,0,0,3.13,3.21h4.89v7H314.67v-7h4.89a2.89,2.89,0,0,0,3.13-3.21V56.4c0-1.36-1.12-2.08-3.13-2.08h-5V47.26h31.27Z" transform="translate(-0.14 -0.12)"/><path class="cls-14" d="M396.28,83.9h.16V57.52a2.88,2.88,0,0,0-3.12-3.2h-4.89V47.26h24.69v7.06h-4.81a2.89,2.89,0,0,0-3.13,3.2v42.89H389L366.7,60.89h-.16V90.15a2.89,2.89,0,0,0,3.13,3.21h4.89v7H349.78v-7h4.89a2.89,2.89,0,0,0,3.13-3.21V57.52a2.89,2.89,0,0,0-3.13-3.2h-5V47.26h25.82Z" transform="translate(-0.14 -0.12)"/><path class="cls-14" d="M476.61,79.41h-3.69a2.89,2.89,0,0,0-3.12,3.21v18.43h-7l-1.76-3.92c-4.65,3.6-10.58,4.89-15.79,4.89-16.68,0-28.39-9.46-28.39-27.42,0-18.12,11.31-28.94,28.39-28.94,4.65,0,10.42,1.52,14.43,5.37l1.6-4.49h7.21V68.35h-7.45c-.24-7.94-5-15.24-13.07-15.24-9.3,0-13.71,6.9-13.71,20.77S438.69,94.4,448,94.4c3.05,0,6.74-1.2,6.74-5V82.62a2.89,2.89,0,0,0-3.13-3.21h-4.17V72.35h29.18Z" transform="translate(-0.14 -0.12)"/><text class="cls-15" transform="translate(129.67 100.29)">EUDING</text></g><g id="friends"><path class="cls-16" d="M98.08,203.13V192.57h7.32c3,0,4.68-1.8,4.68-4.8V138.93c0-3-1.68-4.8-4.68-4.8H98V123.57h79.8v30.48H166.6c0-17.28-6.72-19.92-22.08-19.92H132.64v22.92h3.72c6.84,0,9.48-3.12,9.48-8.16v-4.68h10v36.24h-10v-4.68c0-5-2.64-8.16-9.48-8.16h-3.72v20.16c0,3,1.68,4.8,4.68,4.8h7.44v10.56Z" transform="translate(-0.14 -0.12)"/><text class="cls-17" transform="translate(95.42 203.01)">F</text><path class="cls-18" d="M183.55,166.43a2.24,2.24,0,0,0-2.42-2.48h-3.84V158.5h28.54c8.67,0,13.81,3.41,13.81,10,0,5.88-4,8.54-9.35,9.29v.12c4.64,1.3,7.24,2.79,7.24,7.86v6.5c0,1.18.43,2.11,2.11,2.11s2-1.92,2-3.84v-2.48h4.15v2.11c0,6-2.11,10.59-10.09,10.59-5.89,0-9.85-2.91-9.85-10.16v-5.07c0-3.72-.62-4.59-5.63-4.59h-5.08v10.65a2.24,2.24,0,0,0,2.42,2.48h3.84v5.45H177.35V194.1h3.78a2.24,2.24,0,0,0,2.42-2.48Zm11.63,9.1h5.95c4.58,0,6.87-1,6.87-5.95,0-4.58-2.66-5.63-8.36-5.63h-4.46Z" transform="translate(-0.14 -0.12)"/><path class="cls-18" d="M253.62,164h-3.84c-1.55,0-2.41.25-2.41,2.48v25.19a2.23,2.23,0,0,0,2.41,2.48h3.78v5.45h-24V194.1h3.78a2.23,2.23,0,0,0,2.41-2.48V165.56c0-1.05-.87-1.61-2.41-1.61h-3.84V158.5h24.14Z" transform="translate(-0.14 -0.12)"/><path class="cls-18" d="M262.59,166.43a2.23,2.23,0,0,0-2.41-2.48h-3.84V158.5h41.17v15.73h-5.76c0-8.92-3.46-10.28-11.39-10.28h-6.13v11.83h1.92c3.59,0,4.89-1.43,4.89-5.27v-1.36h5.14v18.7H281v-1.49c0-2.29-.86-5.14-3.09-5.14h-3.72V194.1h7.56c6.5,0,10-1.36,10-11.33h5.76v16.78H256.4V194.1h3.78a2.23,2.23,0,0,0,2.41-2.48Z" transform="translate(-0.14 -0.12)"/><path class="cls-18" d="M337.25,186.79h.13V166.43A2.24,2.24,0,0,0,335,164h-3.78V158.5h19.07V164h-3.71a2.24,2.24,0,0,0-2.42,2.48v33.12h-12.5L314.41,169h-.13v22.59a2.24,2.24,0,0,0,2.42,2.48h3.77v5.45H301.35V194.1h3.77a2.24,2.24,0,0,0,2.42-2.48V166.43a2.24,2.24,0,0,0-2.42-2.48h-3.84V158.5h19.94Z" transform="translate(-0.14 -0.12)"/><path class="cls-18" d="M358.36,166.43a2.24,2.24,0,0,0-2.42-2.48h-3.71V158.5H374.7c14.05,0,23.15,6.13,23.15,20.87,0,14.11-8.91,20.18-23.52,20.18h-22V194.1h3.65a2.24,2.24,0,0,0,2.42-2.48ZM370,194.1h2.84c8.18,0,11.89-2.85,11.89-15.11s-3.71-15-11.89-15H370Z" transform="translate(-0.14 -0.12)"/><path class="cls-18" d="M437.22,173.17h-5.69c-.93-6.5-6.69-10.15-12.13-10.15-3.59,0-6.94,1.18-6.94,5.33,0,7.8,26.81,1.54,26.81,19.19,0,9.9-8.55,13.25-17.09,13.25-4.76,0-9.59-1-13.49-3.84l-1.61,3.28h-5.2V184h5.75c.81,6.5,6.19,11,13.5,11,3.22,0,7.12-1.8,7.12-5.33,0-8.85-26.81-1.67-26.81-19.43,0-10.22,9.23-13,17.77-13A22.05,22.05,0,0,1,431,160.86l1.12-2.91h5.13Z" transform="translate(-0.14 -0.12)"/><text class="cls-19" transform="translate(176.1 199.43)">RIENDS</text></g></svg>